# xmcd
#
# Track frame offsets: 
#        150
#        22552
#        43128
#        60865
#        81005
#        97892
#        118440
#        138515
#
# Disc length: 2141 seconds
#
# Revision: 0
# Processed by: cddbd v1.5.2PL0 Copyright (c) Steve Scherf et al.
# Submitted via: ExactAudioCopy v1.0b1
#
DISCID=5b085b08
DTITLE=Various Artist - Covered In Blues - Songs Of Eric Clapton
DYEAR=2003
DGENRE=Blues
TTITLE0=Lay Down Sally - Carl Weathersby
TTITLE1=Blues Power - Koko Taylor
TTITLE2=Before You Accuse Me - Bo Diddley
TTITLE3=Too Bad - Pinetop Perkins with John Hammond and Bob Margolin
TTITLE4=Crossroads - Honeyboy Edwards with James Cotton
TTITLE5=Tears In Heaven - Ann Peebles
TTITLE6=Wonderful Tonight - Otis Clay
TTITLE7=Layla - Eric Gales with Derek Trucks
EXTD=
EXTT0=
EXTT1=
EXTT2=
EXTT3=
EXTT4=
EXTT5=
EXTT6=
EXTT7=
PLAYORDER=
